<?xml version="1.0" standalone="no"?>
<!DOCTYPE svg PUBLIC "-//W3C//DTD SVG 20010904//EN"
 "http://www.w3.org/TR/2001/REC-SVG-20010904/DTD/svg10.dtd">
<svg version="1.0" xmlns="http://www.w3.org/2000/svg"
 width="512.000000pt" height="512.000000pt" viewBox="0 0 512.000000 512.000000"
 preserveAspectRatio="xMidYMid meet">
<metadata>
Created by potrace 1.11, written by Peter Selinger 2001-2013
</metadata>
<g transform="translate(0.000000,512.000000) scale(0.100000,-0.100000)"
fill="#000000" stroke="none">
<path d="M2485 4289 c-28 -3 -62 -10 -75 -15 -14 -4 -27 -9 -30 -9 -52 -14
-154 -81 -208 -136 -66 -67 -98 -125 -128 -229 -35 -121 -47 -150 -80 -189
-62 -74 -127 -83 -290 -42 -140 35 -222 35 -325 1 -249 -84 -410 -351 -366
-605 22 -127 93 -255 178 -320 72 -55 106 -105 114 -169 11 -85 -8 -132 -76
-195 -60 -55 -142 -174 -154 -224 -4 -15 -11 -27 -16 -27 -5 0 -8 -3 -7 -7 1
-5 -2 -29 -6 -54 -24 -143 -7 -252 57 -372 73 -138 213 -246 355 -276 83 -17
217 -13 302 9 94 25 127 25 183 1 66 -28 99 -76 131 -189 35 -124 73 -191 157
-274 235 -233 630 -200 815 68 43 62 89 166 99 224 9 50 63 125 106 150 51 28
118 31 187 7 84 -28 107 -32 212 -31 73 1 110 6 163 25 95 34 203 116 253 193
110 168 123 441 28 611 -15 26 -62 84 -106 129 -87 90 -109 137 -102 221 5 58
27 93 110 180 71 73 118 149 140 224 24 82 24 88 24 181 0 74 -6 110 -37 215
-11 37 -85 140 -132 183 -90 83 -257 144 -371 135 -25 -2 -79 -11 -120 -20
-113 -24 -163 -27 -222 -9 -95 27 -123 65 -164 224 -33 129 -58 175 -127 244
-132 130 -301 190 -472 167z m195 -289 c88 -45 131 -108 148 -215 18 -107 69
-201 163 -295 57 -57 177 -114 266 -126 65 -9 183 -11 183 -2 0 8 81 27 140
33 97 10 206 -50 253 -139 17 -32 21 -58 21 -122 1 -95 -3 -102 -114 -220 -66
-69 -129 -166 -136 -209 -44 -241 -5 -379 156 -549 37 -39 70 -80 73 -91 13
-41 15 -95 5 -95 -7 0 -7 -4 0 -12 14 -18 -8 -97 -41 -147 -60 -91 -170 -119
-317 -82 -283 71 -524 -52 -634 -325 -16 -38 -35 -87 -44 -109 -70 -174 -290
-226 -418 -97 -26 25 -63 87 -65 107 -3 32 -34 140 -51 175 -91 192 -348 318
-553 270 -89 -21 -109 -23 -180 -23 -54 0 -80 5 -115 23 -53 27 -106 81 -128
130 -18 43 -23 112 -8 122 8 6 7 8 -1 8 -33 0 38 128 111 199 157 152 200 384
106 584 -28 62 -49 90 -126 170 -55 57 -74 85 -87 129 -39 121 19 258 130 309
61 28 129 33 188 14 149 -48 211 -54 309 -29 206 52 352 198 392 391 5 24 26
85 38 107 32 61 101 116 167 134 48 12 125 4 169 -18z"/>
<path d="M2493 3238 c-356 -33 -621 -309 -640 -665 -8 -148 15 -254 83 -384
117 -223 349 -362 604 -364 158 0 235 17 357 79 50 25 151 101 183 137 54 61
76 94 115 174 54 112 73 198 73 323 -1 306 -195 577 -478 666 -38 13 -67 25
-64 29 3 3 -2 4 -13 1 -10 -3 -45 -1 -78 3 -33 5 -97 5 -142 1z m99 -284 c5
-3 31 -7 57 -8 103 -6 236 -107 291 -221 139 -291 -53 -611 -372 -617 -69 -2
-141 9 -134 20 2 4 -9 7 -24 8 -32 1 -121 57 -161 101 -119 130 -148 314 -75
477 63 140 209 237 370 244 21 1 42 -1 48 -4z"/>
</g>
</svg>
